<svg xmlns="http://www.w3.org/2000/svg" xmlns:xlink="http://www.w3.org/1999/xlink" version="1.1" x="0px" y="0px" viewBox="-20 -20 93.34000015258789 89.59000015258789" xml:space="preserve" data-icon="true" fill="#644E02"><path d="M53.26,14.78C52.48,6.21,46.42,0,38.83,0c-4.6,0-8.96,2.3-11.67,6.14c-0.21,0.3-0.48,0.35-0.63,0.35  c-0.14,0-0.42-0.05-0.63-0.35C23.23,2.24,19.08,0,14.51,0C6.93,0,0.87,6.21,0.09,14.78c-0.06,0.37-0.31,2.36,0.45,5.61  c1.11,4.69,3.66,8.95,7.39,12.32l18.58,16.87l18.9-16.86c0.96-0.87,1.83-1.79,2.63-2.77c0.01-0.01,0.02-0.03,0.04-0.05  c2.29-2.81,3.9-6.04,4.72-9.51C53.57,17.14,53.32,15.15,53.26,14.78z M26.52,46.9L9.27,31.24c-0.36-0.32-0.69-0.66-1.02-1h3.1  c0.39,0,0.75-0.23,0.91-0.59l4.03-8.87l5.13,12.83c0.14,0.36,0.48,0.6,0.87,0.63c0.02,0,0.04,0,0.06,0c0.36,0,0.7-0.2,0.87-0.51  l4.16-7.48l2.11,3.54c0.21,0.35,0.62,0.55,1.02,0.47c0.41-0.07,0.73-0.38,0.81-0.78l2.88-13.72l2.15,13.63  c0.08,0.49,0.5,0.84,0.99,0.84h7.75c-0.33,0.34-0.67,0.67-1.02,0.99L26.52,46.9z M50.85,19.94c-0.71,3.01-2.09,5.82-4.02,8.3H38.2  l-2.87-18.16c-0.08-0.48-0.48-0.83-0.96-0.84c-0.51-0.04-0.9,0.32-1,0.79l-3.47,16.53l-1.69-2.84c-0.18-0.31-0.48-0.48-0.87-0.49  c-0.36,0.01-0.69,0.2-0.86,0.51l-3.98,7.16l-5.22-13.05c-0.15-0.37-0.5-0.62-0.91-0.63c-0.38-0.03-0.77,0.22-0.93,0.59L10.7,28.24  h-4.2c-1.93-2.49-3.31-5.3-4.02-8.3c-0.73-3.08-0.43-4.83-0.43-4.84L2.08,15C2.75,7.47,7.98,2,14.51,2c3.9,0,7.45,1.92,9.74,5.27  c0.52,0.77,1.38,1.22,2.28,1.22c0.9,0,1.73-0.44,2.26-1.19C31.13,3.98,34.88,2,38.83,2c6.54,0,11.77,5.47,12.45,13.09  C51.28,15.11,51.58,16.85,50.85,19.94z"></path></svg>